<?xml version="1.0" encoding="utf-8"?>
<svg version="1.0" width="612.000000pt" height="345.000000pt" viewBox="0 0 612.000000 345.000000"
  preserveAspectRatio="xMidYMid meet" xmlns="http://www.w3.org/2000/svg">
  <!-- style="background:
  linear-gradient(90deg, #00000077 10%, transparent 0), linear-gradient(#00000077 10%, transparent 0); background-size: 10px 10px;" -->
  <g transform="translate(0.000000,345.000000) scale(0.100000,-0.100000)" fill="#000000" stroke="none">
    <path id="pawn"
      d="M825 2665 c-71 -25 -108 -97 -89 -174 l9 -36 125 -3 c143 -3 150 0 150 76 0 104 -97 172 -195 137z" />
    <path id="pawn"
      d="M746 2414 c-9 -8 -16 -19 -16 -24 0 -5 7 -16 16 -24 23 -23 235 -23 258 0 20 19 20 29 0 48 -23 23 -235 23 -258 0z" />
    <path id="pawn"
      d="M795 2263 c-4 -38 -18 -111 -31 -163 -13 -52 -24 -96 -24 -97 0 -2 61 -3 136 -3 l136 0 -6 23 c-12 38 -45 209 -51 260 l-6 47 -74 0 -73 0 -7 -67z" />
    <path id="pawn"
      d="M670 1960 c-12 -12 -18 -25 -15 -30 8 -14 445 -13 445 0 0 6 -9 19 -20 30 -19 19 -33 20 -205 20 -173 0 -186 -1 -205 -20z" />
    <path id="pawn"
      d="M621 1886 c-26 -14 -39 -37 -40 -68 -1 -17 19 -18 294 -18 l295 0 0 24 c0 13 -9 34 -19 47 -19 24 -20 24 -263 26 -192 2 -248 0 -267 -11z" />
    <path
      d="M5223 3220 c-3 -11 -14 -20 -24 -20 -27 0 -26 -46 1 -53 15 -4 20 -14 20 -39 0 -28 -5 -36 -27 -45 -24 -9 -16 -11 52 -11 69 0 76 2 52 11 -24 10 -28 16 -25 47 2 23 8 35 18 35 9 0 16 11 18 28 3 22 -1 27 -17 27 -14 0 -21 6 -21 20 0 14 -7 20 -21 20 -12 0 -23 -8 -26 -20z" />
    <path
      d="M4337 3089 c-9 -6 -17 -17 -17 -25 0 -9 -17 -31 -37 -50 -36 -35 -36 -35 -15 -50 19 -13 25 -13 52 1 28 14 33 14 64 0 29 -14 37 -14 55 -3 28 17 27 23 -14 55 -19 15 -35 36 -35 45 0 23 -31 39 -53 27z" />
    <path
      d="M5092 3018 c3 -7 17 -50 33 -95 l28 -83 93 0 92 0 27 83 c15 45 30 88 32 95 4 9 -30 12 -152 12 -121 0 -156 -3 -153 -12z" />
    <path
      d="M3485 2963 c-12 -11 -15 -26 -11 -47 5 -25 -3 -46 -39 -105 -47 -79 -61 -125 -51 -166 6 -25 6 -25 130 -25 104 0 125 3 130 16 10 27 7 62 -11 105 l-16 42 -29 -57 c-15 -31 -32 -56 -38 -56 -21 0 -19 23 10 85 l30 66 -20 29 c-16 22 -19 38 -15 63 7 36 -12 67 -40 67 -7 0 -21 -7 -30 -17z" />
    <path
      d="M4194 2937 c-2 -7 8 -49 24 -93 l30 -79 108 0 108 0 27 75 c15 41 28 80 28 87 1 19 -37 25 -74 12 -28 -11 -40 -11 -55 -1 -24 15 -57 16 -65 2 -3 -5 -19 -10 -35 -10 -16 0 -32 5 -35 10 -9 15 -55 12 -61 -3z" />
    <path d="M5104 2783 c-13 -52 1 -58 141 -58 140 0 154 6 141 58 l-6 27 -135 0 -135 0 -6 -27z" />
    <path
      d="M4228 2729 c-21 -12 -24 -49 -6 -67 8 -8 52 -12 133 -12 81 0 125 4 133 12 18 18 14 56 -7 68 -25 13 -230 13 -253 -1z" />
    <path
      d="M5166 2558 c-9 -176 -29 -329 -61 -456 -14 -53 -25 -98 -25 -99 0 -2 75 -3 166 -3 137 0 165 2 161 14 -13 33 -57 248 -66 321 -5 45 -13 145 -17 223 l-7 142 -72 0 -72 0 -7 -142z" />
    <path
      d="M1522 2581 c4 -155 0 -151 192 -151 83 0 156 4 162 8 25 16 34 56 34 151 l0 101 -45 0 -45 0 0 -45 c0 -41 -2 -45 -25 -45 -23 0 -25 4 -25 45 l0 45 -55 0 -55 0 0 -45 c0 -41 -2 -45 -25 -45 -23 0 -25 4 -25 45 l0 45 -46 0 -46 0 4 -109z" />
    <path
      d="M2645 2680 c-11 -5 -45 -9 -75 -9 -112 -2 -180 -42 -225 -135 -56 -114 -42 -254 37 -370 35 -52 41 -67 41 -113 l0 -53 167 0 168 0 6 31 c19 98 -18 205 -97 275 -44 39 -77 82 -77 99 1 6 7 2 15 -9 9 -12 31 -20 62 -24 26 -3 59 -13 72 -23 29 -23 74 -25 91 -4 17 21 6 52 -39 111 -21 29 -42 62 -46 75 -4 13 -21 38 -37 56 -30 31 -31 41 -13 86 8 19 -14 22 -50 7z" />

    <path
      d="M4276 2501 c-9 -171 -46 -392 -82 -485 -5 -14 13 -16 161 -16 154 0 166 1 161 18 -48 159 -71 300 -82 490 l-7 122 -72 0 -72 0 -7 -129z" />
    <path
      d="M3382 2591 c-8 -4 -12 -19 -10 -32 3 -24 3 -24 143 -24 127 0 140 2 143 18 8 40 -14 47 -142 47 -66 0 -127 -4 -134 -9z" />
    <path
      d="M3440 2508 c0 -2 -3 -48 -6 -103 -5 -110 -33 -259 -63 -348 l-20 -57 164 0 163 0 -19 53 c-29 79 -57 230 -65 350 l-7 107 -73 0 c-41 0 -74 -1 -74 -2z" />

    <path
      d="M1596 2358 c-3 -24 -15 -111 -26 -193 -11 -83 -20 -154 -20 -158 0 -4 76 -7 168 -7 l168 0 -17 118 c-10 64 -21 154 -25 200 l-7 82 -118 0 -118 0 -5 -42z" />


    <path
      d="M1518 1969 c-10 -5 -18 -19 -18 -29 0 -19 9 -20 220 -20 185 0 220 2 220 14 0 8 -10 22 -22 30 -18 13 -55 16 -203 16 -103 0 -187 -5 -197 -11z" />
    <path
      d="M2390 1973 c-18 -7 -30 -23 -30 -40 0 -10 51 -13 220 -13 185 0 220 2 220 14 0 8 -10 22 -22 30 -18 13 -54 16 -198 15 -96 0 -182 -3 -190 -6z" />
    <path
      d="M3310 1960 c-11 -11 -20 -24 -20 -30 0 -13 437 -14 445 0 3 5 -3 18 -15 30 -19 19 -32 20 -205 20 -172 0 -186 -1 -205 -20z" />
    <path
      d="M4150 1960 c-12 -12 -18 -25 -15 -30 8 -14 445 -13 445 0 0 6 -9 19 -20 30 -19 19 -33 20 -205 20 -173 0 -186 -1 -205 -20z" />
    <path
      d="M5040 1960 c-11 -11 -20 -24 -20 -30 0 -6 82 -10 225 -10 143 0 225 4 225 10 0 6 -9 19 -20 30 -19 19 -33 20 -205 20 -172 0 -186 -1 -205 -20z" />

    <path
      d="M1464 1889 c-12 -6 -27 -22 -33 -35 -25 -56 -36 -54 284 -54 l295 0 0 24 c0 13 -9 34 -19 47 -19 24 -20 24 -263 26 -155 1 -251 -2 -264 -8z" />
    <path
      d="M2340 1893 c-30 -11 -50 -37 -50 -65 l0 -28 290 0 290 0 0 29 c0 20 -9 36 -26 50 -25 20 -39 21 -258 20 -127 0 -238 -3 -246 -6z" />
    <path
      d="M3263 1890 c-25 -10 -43 -39 -43 -69 0 -21 4 -21 295 -21 313 0 302 -2 289 48 -13 46 -45 52 -291 51 -125 0 -238 -4 -250 -9z" />
    <path
      d="M4105 1888 c-29 -16 -44 -40 -45 -65 l0 -23 295 0 c284 0 295 1 295 19 0 74 -27 81 -297 81 -153 -1 -235 -4 -248 -12z" />
    <path
      d="M4995 1888 c-29 -15 -45 -39 -45 -65 l0 -23 295 0 c284 0 295 1 295 19 0 74 -27 81 -297 81 -146 0 -235 -5 -248 -12z" />
    <path
      d="M5210 1645 c0 -8 -9 -15 -20 -15 -16 0 -20 -7 -20 -35 0 -28 4 -35 20 -35 15 0 20 -7 20 -27 -1 -32 -55 -73 -95 -73 -13 0 -26 -3 -28 -7 -3 -5 10 -53 29 -108 19 -55 34 -101 34 -102 0 -2 -8 -3 -18 -3 -26 0 -42 -20 -42 -51 0 -33 23 -59 52 -59 21 0 21 -3 14 -152 -7 -178 -25 -310 -62 -460 -20 -84 -31 -110 -49 -122 -13 -9 -26 -29 -30 -46 -4 -16 -12 -30 -19 -30 -21 0 -47 -35 -53 -74 l-6 -36 308 0 308 0 -6 36 c-6 39 -32 74 -53 74 -7 0 -15 14 -19 30 -4 17 -17 37 -30 46 -45 29 -100 316 -111 580 l-7 151 31 6 c23 5 33 13 38 32 9 36 -10 75 -36 75 -24 0 -25 -5 21 125 15 43 25 83 23 87 -3 4 -16 8 -29 8 -40 0 -94 41 -95 73 0 20 5 27 20 27 16 0 20 7 20 35 0 28 -4 35 -20 35 -11 0 -20 7 -20 15 0 10 -11 15 -35 15 -24 0 -35 -5 -35 -15z m146 -302 l-33 -98 -78 0 -78 0 -33 98 -33 97 144 0 144 0 -33 -97z m19 -159 l0 -29 -130 0 -130 0 0 30 0 30 105 5 c136 6 155 2 155 -36z m-52 -236 c5 -185 25 -324 66 -471 19 -70 18 -78 -15 -72 -10 2 -80 4 -154 4 l-136 1 28 111 c38 152 58 314 58 475 l0 134 74 0 73 0 6 -182z m125 -570 c7 -7 12 -20 12 -30 0 -17 -15 -18 -215 -18 -207 0 -215 1 -215 20 0 10 8 24 18 29 25 15 385 14 400 -1z m62 -88 c11 -11 20 -31 20 -45 l0 -25 -285 0 -285 0 0 25 c0 13 10 33 22 45 21 19 34 20 265 20 230 0 244 -1 263 -20z" />
    <path
      d="M4322 1508 c-7 -7 -12 -18 -12 -25 0 -8 -16 -27 -35 -44 -19 -17 -35 -37 -35 -45 0 -8 -8 -14 -19 -14 -10 0 -24 -7 -31 -15 -10 -12 -6 -32 20 -106 l33 -90 -22 -16 c-33 -22 -25 -64 16 -83 32 -15 33 -16 33 -86 0 -222 -65 -556 -116 -589 -15 -9 -24 -25 -24 -40 0 -17 -7 -28 -23 -34 -32 -12 -47 -33 -54 -75 l-6 -36 308 0 308 0 -6 36 c-7 39 -32 74 -54 74 -7 0 -13 9 -13 21 0 12 -13 34 -30 49 -51 48 -104 288 -116 531 l-7 125 37 22 c42 25 49 62 15 86 l-22 15 33 90 c26 74 30 94 20 106 -7 8 -21 15 -31 15 -11 0 -19 6 -19 14 0 8 -16 28 -35 45 -19 17 -35 36 -35 44 0 19 -21 37 -45 37 -12 0 -26 -5 -33 -12z m58 -33 c0 -15 8 -26 20 -30 31 -10 62 -55 49 -71 -13 -16 -55 -19 -64 -4 -8 13 -48 13 -62 -1 -6 -6 -21 -9 -34 -7 -37 5 -32 47 8 73 20 12 32 28 33 42 0 40 50 38 50 -2z m-113 -127 c27 -10 38 -10 53 0 24 15 57 16 65 2 3 -5 17 -10 30 -10 13 0 27 5 30 10 9 15 65 12 65 -3 0 -7 -13 -49 -29 -93 l-29 -79 -73 -5 c-117 -8 -114 -10 -148 81 -17 45 -31 87 -31 95 0 17 23 18 67 2z m218 -233 l0 -30 -130 0 c-117 0 -130 2 -133 18 -9 45 0 48 135 45 l128 -3 0 -30z m-52 -222 c6 -169 25 -289 66 -422 13 -42 15 -61 7 -61 -6 0 -78 -2 -159 -3 l-149 -2 5 25 c3 14 14 60 25 102 33 120 52 274 52 407 l0 121 74 0 73 0 6 -167z m125 -515 c7 -7 12 -20 12 -30 0 -17 -15 -18 -215 -18 -200 0 -215 1 -215 18 0 39 17 42 215 42 135 0 195 -4 203 -12z m62 -88 c11 -11 20 -31 20 -45 l0 -25 -285 0 -285 0 0 25 c0 14 9 34 20 45 19 19 33 20 265 20 232 0 246 -1 265 -20z" />
    <path
      d="M3488 1396 c-19 -10 -23 -20 -24 -56 0 -34 -10 -62 -42 -115 -48 -79 -59 -123 -44 -171 8 -26 7 -34 -5 -38 -9 -4 -13 -16 -11 -32 3 -26 14 -37 52 -48 17 -6 18 -14 12 -113 -14 -201 -62 -383 -115 -432 -17 -16 -31 -38 -31 -50 0 -12 -6 -21 -14 -21 -22 0 -56 -49 -56 -81 l0 -29 305 0 305 0 0 23 c0 33 -22 70 -49 84 -14 6 -26 22 -28 35 -2 13 -14 32 -28 43 -49 40 -102 244 -112 432 l-6 113 24 0 c45 0 65 43 35 73 -11 11 -12 22 -4 53 8 31 7 48 -8 88 -11 27 -24 51 -29 52 -6 2 -21 -21 -34 -51 -13 -30 -27 -55 -32 -55 -13 0 -12 1 21 75 l30 67 -21 29 c-15 21 -19 37 -14 59 12 55 -29 90 -77 66z m52 -21 c7 -8 9 -26 5 -44 -5 -23 -1 -38 15 -60 l21 -30 -31 -67 c-26 -59 -29 -70 -16 -82 19 -20 35 -8 59 47 l20 46 13 -30 c14 -33 17 -68 8 -102 -6 -22 -11 -23 -119 -23 -124 0 -125 0 -125 66 0 33 37 117 79 179 16 22 19 39 15 64 -9 46 28 70 56 36z m50 -541 c0 -113 26 -267 60 -357 11 -29 20 -55 20 -59 0 -5 -70 -8 -155 -8 -85 0 -155 4 -155 9 0 5 7 28 16 52 39 110 55 198 61 332 l6 137 73 0 74 0 0 -106z m124 -460 c9 -8 16 -22 16 -30 0 -12 -35 -14 -215 -14 -200 0 -215 1 -215 18 0 39 18 42 211 42 157 0 190 -3 203 -16z m64 -84 c12 -12 22 -32 22 -45 l0 -25 -285 0 -285 0 0 25 c0 14 9 34 20 45 19 19 33 20 263 20 231 0 244 -1 265 -20z" />
    <path
      d="M1514 1105 c-3 -8 -4 -59 -2 -114 3 -89 6 -102 27 -125 14 -14 31 -26 39 -26 17 0 14 -42 -19 -280 -18 -129 -23 -147 -45 -163 -14 -11 -24 -29 -24 -43 0 -17 -8 -27 -25 -34 -15 -6 -32 -25 -40 -45 -30 -69 -48 -65 290 -65 l305 0 0 29 c0 32 -34 81 -56 81 -8 0 -14 9 -14 20 0 12 -12 33 -27 48 -24 24 -29 42 -48 182 -40 276 -39 264 -5 277 41 15 50 46 50 169 l0 105 -52 -3 -53 -3 -3 -42 c-2 -29 -8 -43 -18 -43 -10 0 -14 13 -14 45 l0 46 -62 -3 -63 -3 -3 -42 c-2 -29 -8 -43 -18 -43 -10 0 -14 12 -14 45 l0 45 -50 0 c-35 0 -52 -4 -56 -15z m94 -52 c3 -40 5 -43 33 -43 28 0 29 2 29 46 l0 45 48 -3 c45 -3 47 -4 48 -35 1 -18 2 -37 3 -43 0 -5 15 -10 31 -10 29 0 30 2 30 45 0 45 0 45 35 45 l35 0 0 -102 c0 -142 6 -138 -186 -138 -189 0 -184 -4 -184 143 l0 98 38 -3 c36 -3 37 -4 40 -45z m225 -293 c4 -41 16 -135 27 -209 11 -74 19 -136 17 -137 -4 -4 -318 -7 -322 -2 -2 1 1 26 6 53 7 39 49 356 49 372 0 2 48 2 108 1 l107 -3 8 -75z m85 -382 c7 -7 12 -20 12 -30 0 -17 -15 -18 -215 -18 -146 0 -215 3 -215 11 0 6 5 19 10 30 10 18 23 19 203 19 137 0 196 -3 205 -12z m62 -88 c11 -11 20 -31 20 -45 l0 -25 -285 0 -285 0 0 23 c0 13 9 33 20 45 20 21 27 22 265 22 232 0 246 -1 265 -20z" />
    <path
      d="M2650 1110 c-14 -4 -49 -8 -79 -9 -77 -1 -126 -19 -175 -62 -113 -100 -125 -305 -27 -449 48 -69 54 -90 46 -141 -5 -30 -13 -43 -31 -49 -16 -6 -27 -20 -31 -40 -3 -20 -16 -36 -33 -45 -31 -16 -40 -33 -40 -76 l0 -29 300 0 300 0 0 34 c0 27 -7 41 -34 63 -18 15 -36 41 -40 57 -4 16 -15 30 -27 33 -14 4 -18 11 -14 22 4 9 9 44 12 77 7 80 -24 152 -102 233 l-56 59 43 -6 c24 -3 56 -14 73 -24 52 -32 115 -18 115 26 0 12 -22 55 -50 94 -27 39 -50 78 -50 86 0 8 -14 29 -32 45 -31 29 -32 32 -20 64 7 18 12 36 12 40 0 9 -28 7 -60 -3z m27 -40 c-10 -27 -8 -33 21 -63 18 -18 32 -37 32 -43 0 -5 25 -47 55 -93 30 -46 52 -87 49 -92 -16 -27 -43 -28 -88 -4 -26 14 -61 25 -79 25 -41 0 -52 8 -70 50 l-15 35 -1 -35 c-1 -41 16 -68 85 -138 75 -74 97 -126 92 -212 -2 -38 -8 -74 -13 -79 -6 -6 -78 -11 -160 -12 l-150 -1 -3 62 c-3 53 -8 69 -46 124 -53 78 -71 144 -63 243 7 91 44 164 106 207 35 26 53 31 125 35 46 3 88 9 92 14 4 4 15 7 25 7 15 0 16 -4 6 -30z m101 -692 c7 -7 12 -20 12 -30 0 -17 -14 -18 -210 -18 -196 0 -210 1 -210 18 0 38 18 42 210 42 131 0 190 -4 198 -12z m61 -85 c11 -10 22 -29 23 -43 l3 -25 -285 0 -285 0 3 25 c1 14 12 33 23 43 19 15 47 17 259 17 212 0 240 -2 259 -17z" />
    <path
      d="M827 1095 c-21 -7 -48 -21 -59 -32 -45 -39 -60 -118 -34 -178 10 -24 10 -34 0 -50 -17 -27 -1 -63 31 -71 29 -7 29 -11 14 -121 -16 -121 -49 -233 -68 -233 -29 0 -61 -30 -61 -56 0 -16 -8 -27 -23 -33 -32 -12 -47 -33 -54 -75 l-6 -36 307 0 306 0 0 29 c0 32 -34 81 -56 81 -8 0 -14 9 -14 20 0 24 -46 74 -59 66 -23 -14 -54 77 -76 224 -19 124 -19 127 10 134 35 9 50 41 32 70 -13 19 -13 26 -1 47 7 13 13 45 14 70 0 103 -105 178 -203 144z m113 -25 c64 -33 90 -108 61 -178 l-13 -32 -113 0 c-110 0 -112 0 -123 25 -16 34 -15 104 2 134 17 31 84 71 119 71 15 0 46 -9 67 -20z m58 -239 c8 -5 12 -17 10 -27 -3 -17 -15 -19 -113 -22 -120 -3 -155 2 -155 21 0 30 25 37 135 37 60 0 116 -4 123 -9z m-54 -103 c19 -138 30 -197 45 -253 10 -35 17 -66 15 -67 -1 -2 -61 -2 -132 0 l-130 3 18 60 c17 55 30 127 45 242 l6 47 64 0 64 0 5 -32z m134 -350 c7 -7 12 -20 12 -30 0 -17 -15 -18 -215 -18 -200 0 -215 1 -215 18 0 39 17 42 215 42 135 0 195 -4 203 -12z m62 -88 c11 -11 20 -31 20 -45 l0 -25 -285 0 -285 0 0 25 c0 13 10 33 22 45 21 19 34 20 265 20 230 0 244 -1 263 -20z" />
  </g>
</svg>