<?xml version="1.0" standalone="no"?>
<!DOCTYPE svg PUBLIC "-//W3C//DTD SVG 20010904//EN"
 "http://www.w3.org/TR/2001/REC-SVG-20010904/DTD/svg10.dtd">
<svg version="1.0" xmlns="http://www.w3.org/2000/svg"
 width="210.000000pt" height="874.000000pt" viewBox="0 0 210.000000 874.000000"
 preserveAspectRatio="xMidYMid meet">
<metadata>
Created by potrace 1.16, written by Peter Selinger 2001-2019
</metadata>
<g transform="translate(0.000000,874.000000) scale(0.100000,-0.100000)"
fill="#000000" stroke="none">
<path d="M0 4375 l0 -4365 1014 0 1013 0 -23 130 c-13 72 -30 159 -39 193 -21
85 -85 211 -143 283 -52 64 -140 124 -183 124 -57 0 -90 48 -104 155 -11 78
-68 175 -165 280 -49 52 -105 121 -124 154 -280 460 -539 1628 -646 2911 -16
202 -80 1248 -80 1323 0 18 31 40 154 115 181 108 250 167 297 254 28 53 34
73 33 128 0 114 -49 182 -209 290 -42 28 -74 57 -72 63 31 82 271 752 290 812
62 189 87 298 87 372 0 70 -2 75 -36 113 -44 49 -120 86 -201 99 -96 15 -114
29 -127 101 -9 51 -77 136 -244 305 -161 162 -222 242 -222 289 0 44 -36 110
-82 151 -42 39 -134 85 -168 85 -20 0 -20 -28 -20 -4365z"/>
</g>
</svg>
