<?xml version="1.0" standalone="no"?>
<!DOCTYPE svg PUBLIC "-//W3C//DTD SVG 20010904//EN"
 "http://www.w3.org/TR/2001/REC-SVG-20010904/DTD/svg10.dtd">
<svg version="1.0" xmlns="http://www.w3.org/2000/svg"
 width="225.000000pt" height="756.000000pt" viewBox="0 0 225.000000 756.000000"
 preserveAspectRatio="xMidYMid meet">
<metadata>
Created by potrace 1.16, written by Peter Selinger 2001-2019
</metadata>
<g transform="translate(0.000000,756.000000) scale(0.100000,-0.100000)"
fill="#000000" stroke="none">
<path d="M32 7113 l-32 -4 0 -3510 0 -3509 373 0 c206 0 625 3 932 7 l558 6
-6 116 c-3 64 -12 137 -21 163 -47 147 -148 279 -266 348 -37 22 -80 54 -94
71 -33 39 -66 102 -66 126 0 10 -16 51 -35 91 -26 55 -56 94 -122 161 -132
133 -207 271 -312 575 -156 451 -282 1088 -336 1691 -12 134 -55 865 -55 931
0 12 18 14 103 12 162 -3 248 37 301 144 45 90 29 182 -45 270 -44 53 -69 104
-69 143 0 14 14 94 31 178 26 126 31 166 26 237 -8 121 -59 276 -153 463 -19
37 -34 73 -34 81 0 8 -18 44 -41 81 -22 37 -55 99 -74 138 -18 40 -47 85 -64
100 -49 45 -149 203 -167 264 -12 40 -14 74 -10 122 19 201 19 254 -3 312 -51
134 -177 210 -319 192z"/>
</g>
</svg>
