<?xml version="1.0" standalone="no"?>
<svg xmlns="http://www.w3.org/2000/svg" height="805pt" preserveAspectRatio="xMidYMid meet" viewBox="0 0 1920 805"
  width="1920pt">
  <path
    d="
    M1999 7816c-109-42-117-57-72-137 36-64 24-80-41-55-25 10-58 16-73 14l-28-3-3-138-3-137 46-20c71-30 83-91 43-216-11-38-22-95-22-127-1-42-5-58-16-62-8-2-85-9-170-15-264-18-398-43-459-86-21-15-23-22-17-70 10-83 52-206 128-368 108-231 126-283 127-357 0-35 5-91 11-124 5-33 10-85 10-116v-56l-35-6c-20-3-52-16-71-28l-36-22 4-108c3-108 3-109-20-109-95 0-153-135-123-282l12-57 117-58c82-41 120-65 129-83 15-33 59-299 78-480 23-207 30-636 16-865-19-299-56-582-112-860-79-392-264-965-315-973-37-7-124-74-124-96 0-38-47-124-92-167-24-23-113-88-198-144-167-110-232-170-251-234-18-61-1-105 65-169 57-56 75-94 55-119-7-8-55-41-108-73s-111-74-130-94l-33-34 30-44c50-71 81-103 207-207 133-111 114-104 325-121 140-12 2157-33 2290-24 249 16 366 69 562 253 139 131 140 158 11 244-38 24-84 62-102 82-36 42-36 67 0 118 63 87 69 100 69 149 0 27-7 62-15 77-22 43-93 101-219 180-180 112-234 168-267 279-14 50-49 88-98 108-60 25-79 52-130 184-166 425-283 1003-322 1590-16 245-6 716 20 935 20 168 59 393 84 490l13 49 64 13c117 24 180 77 201 169 16 72 0 124-53 166-87 69-111 97-104 121 4 12 9 46 13 74 7 62 1 71-74 119-79 50-87 68-79 172 12 166 55 300 180 570 36 78 78 178 93 221l27 79-28 37c-58 76-184 114-446 134-213 17-196 9-204 94-4 40-21 134-37 210s-29 142-29 147c0 6 32 10 70 10h70v119c0 65-3 133-7 151l-6 33-57-6-58-5 5 57 5 56-58 29c-70 34-177 44-235 22z"
    transform="matrix(.1 0 0 -.1 0 805)" vector-effect="non-scaling-stroke" fill="#F44545" stroke="none"
    stroke-width="2" />
  <path
    d="
    M3458-1190c-102-38-133-137-76-248l19-37-45-20c-25-11-80-45-122-76-66-48-148-85-190-85-8 0-13-13-13-35 0-47-23-101-50-115-34-18-65-4-130 55-33 30-69 55-81 55-18 0-20-4-14-32 8-36 56-153 129-313 25-55 52-127 61-160 18-67 21-202 6-252-8-28-6-40 15-76 35-64 35-120-1-157-16-16-48-37-72-46l-43-17v-88c0-88 0-89-27-95-125-29-172-140-108-249 48-82 137-129 234-123l46 2 12-69c134-814 42-1772-244-2530-67-177-94-225-145-261-42-29-45-35-51-86-12-116-73-187-284-324-154-101-215-156-234-211-16-50-6-110 25-142 14-14 32-42 40-62 19-45 15-49-92-104-70-36-122-83-122-109 0-21 72-82 180-151 58-37 121-82 140-101 41-39 64-43 360-69 441-38 1009-51 1515-36 403 12 754 30 771 40 29 16 212 224 256 291l49 75-23 18c-13 11-57 36-98 57s-83 47-94 58c-18 21-18 22 18 70 68 93 64 172-13 250-25 26-101 85-168 130-223 152-277 217-298 354-5 30-13 41-51 63-52 30-63 52-141 260-130 351-231 801-279 1260-24 219-24 722-1 923 23 197 58 391 73 407 8 8 51 16 101 20 49 4 96 9 106 12 32 9 67 99 67 173 0 79-8 93-95 155-56 40-64 49-55 65 15 29 11 83-8 106-9 11-38 37-64 58-55 44-61 57-48 111 6 25 5 76-3 142-19 174 4 263 144 554 49 103 89 192 89 199 0 20-49 2-94-34-57-46-79-56-125-56s-61 18-61 73c0 30-4 36-27 42-50 12-117 51-220 126-55 41-108 79-118 85-17 10-18 13-5 45 23 54 19 138-8 177-44 60-139 86-215 58z    "
    transform="matrix(.1 0 0 -.1 0 805)" vector-effect="non-scaling-stroke" fill="#F44545" stroke="none"
    stroke-width="2" />
  <path d="
    M3116-588c-29-14-43-63-43-147v-64l-73-96c-99-129-153-212-287-436-129-216-172-310-196-427-32-158-7-299 96-538 80-186 104-270 103-350-4-210-8-250-24-255-8-3-28-19-44-35-25-26-30-40-33-95-4-63-5-66-39-82-44-20-72-78-73-145 0-58 20-82 82-98 103-26 112-32 131-89 56-167 73-483 41-733-30-236-110-506-214-723-39-82-58-108-103-147-42-36-59-60-72-97-26-79-67-131-214-270-127-120-139-134-145-173-12-80 14-163 79-254 14-19 13-23-7-49-12-15-58-44-102-65-45-21-91-49-104-63l-23-25 20-40c26-52 73-90 119-97 57-10 60-12 67-43 7-36 49-75 94-91 19-6 68-11 110-11s168-7 281-15c394-27 971-40 1287-27 158 7 338 17 400 23l112 12 7 31c11 50 33 75 108 118 87 51 111 71 127 109 16 40-3 60-102 110-69 34-119 77-119 100 0 5 16 29 35 55 40 53 69 139 59 181-13 57-55 111-159 208-115 106-173 183-211 276-17 40-43 78-82 117-134 134-278 545-322 922-24 207-7 492 40 643 18 57 24 67 44 67 37 0 121 28 149 50 34 27 48 79 36 126-6 19-35 71-65 115-43 64-54 88-54 120 0 39-2 41-49 61-27 11-52 26-55 33-2 7 2 31 9 53 12 35 12 52 0 124-19 107-6 187 69 431 69 222 86 303 86 415 0 196-44 303-216 531-123 164-159 219-249 392-79 150-84 163-78 207 8 69-14 114-69 141-48 23-127 27-165 9z
    " transform="matrix(.1 0 0 -.1 0 805)" vector-effect="non-scaling-stroke" fill="#F44545" stroke="none"
    stroke-width="2" />
  <path
    d="
    M2607-584c-76-21-141-52-271-130-127-77-205-111-291-127l-60-11 6-55c3-31 9-75 12-99 5-36 0-54-37-130-23-48-51-99-61-114-11-16-18-44-18-75 0-26-11-100-24-164-35-166-40-239-26-380 22-237 58-363 220-774 65-165 130-340 144-390 89-307 70-556-62-820-19-38-74-135-122-215-116-193-115-191-99-201 8-5 32-9 55-9 57 0 104-18 104-39 0-10-18-45-39-78-62-97-65-104-71-188-7-95-29-148-124-296-106-165-111-228-26-325 27-30 53-69 59-85 12-34 1-44-89-79-68-27-115-62-136-101-30-58 7-93 136-128 45-12 79-28 85-38 24-42 102-109 142-121 100-30 262-34 903-26 349 5 768 9 930 9s301 4 308 8c7 5 25 37 41 72 28 62 31 64 83 79 29 8 71 18 93 22 44 8 95 51 95 82 0 28-42 66-116 102-60 30-114 78-114 101 0 18 22 53 55 89 87 93 71 199-64 419-59 98-81 162-81 241 0 50-3 59-31 86-45 41-89 104-89 125 0 10 54 92 121 184l121 166 9 76c6 41 21 125 34 187 33 155 46 268 38 348-5 57-14 81-54 150-34 58-54 106-68 168-11 48-30 105-43 126-72 125-193 256-398 432-233 200-300 264-320 303-11 21-48 71-81 111-61 72-94 131-101 177-2 21 3 27 37 39 22 8 94 39 160 68 141 62 208 79 283 70 71-8 83-15 174-102 42-40 89-76 103-80 48-12 84 14 142 103 31 46 70 95 89 109 37 29 79 106 70 130-5 13-26 14-155 8l-149-7-26 26c-14 14-26 33-26 42 0 14 18 16 158 13 86-2 166 0 178 5 26 9 64 76 64 112 0 33-13 58-60 115-20 25-62 84-93 132-84 130-136 150-526 198-573 71-767 142-857 315l-29 55-80-1c-44 0-105-7-135-15z"
    transform="matrix(.1 0 0 -.1 0 805)" vector-effect="non-scaling-stroke" fill="#F44545" stroke="none"
    stroke-width="2" />
  <path d="
    M3740-402-45-7-7-75c-13-131 0-120-138-120h-119l-11 43c-25 96-34 117-54 136-20 18-31 18-221 10-238-10-388-24-507-45l-88-16v-187c0-250 5-267 114-380 94-98 117-144 137-281 13-93 8-227-16-435-30-257-67-863-85-1415l-11-325-101-173c-93-161-111-185-248-332-169-183-210-248-218-345-7-89 8-122 88-198 39-37 70-75 70-85 0-26-54-74-140-122-98-54-123-79-115-112 9-35 265-288 312-310 100-44 477-62 1278-62 711 0 950 11 1019 46 63 32 279 203 299 236 35 60 34 61-133 185-24 18-51 45-60 59-14 25-13 29 18 68 64 79 87 143 90 259l4 104-60 61c-179 184-318 385-406 585-32 72-35 90-45 237-14 215-29 596-41 1089-11 446-28 887-35 922-3 12 0 25 5 28 17 11 47 77 60 135 19 83 42 120 109 179 34 29 70 69 80 89 39 77 56 222 46 376l-7 102-262 37c-259 37-470 52-556 39z
    " transform="matrix(.1 0 0 -.1 0 805)" vector-effect="non-scaling-stroke" fill="#F44545" stroke="none"
    stroke-width="2" />
  <path
    d="
    M2484-677c-180-39-358-166-428-306-26-52-26-55-26-271 0-203 2-222 21-261 12-24 77-96 155-172 74-71 134-133 134-137 0-13-53-35-157-66-125-36-188-72-210-117-20-43-9-58 50-74 24-6 50-18 59-28 24-27 84-215 103-323 23-133 30-361 16-505-24-234-72-416-151-572-63-126-96-166-152-182-78-24-95-37-112-89-21-64-66-115-181-207-107-87-121-112-110-203 7-59 35-134 60-162 13-15 12-19-8-37-12-11-46-33-75-49-59-31-87-72-77-111 3-14 43-64 89-113s87-98 91-110l7-22 1007 5c553 3 1020 9 1037 12 40 9 234 162 268 211l26 38-23 24c-12 13-51 39-87 57s-73 42-83 53c-19 20-18 22 7 54 98 130 75 208-118 394-92 89-131 135-154 179-28 57-33 61-94 84-34 13-73 32-84 43-12 11-42 61-67 111-181 368-228 925-110 1302 28 87 50 136 67 147 6 4 31 8 57 8 75 0 90 36 39 94-32 36-78 57-235 105-101 31-140 52-134 69 2 6 51 60 108 121 130 139 136 148 168 217 25 55 26 61 20 193-7 161-25 240-73 332-113 214-374 322-640 264z"
    transform="matrix(.1 0 0 -.1 0 805)" vector-effect="non-scaling-stroke" fill="#F44545" stroke="none"
    stroke-width="2" />
</svg>