<?xml version="1.0" standalone="no"?>
<!DOCTYPE svg PUBLIC "-//W3C//DTD SVG 20010904//EN"
 "http://www.w3.org/TR/2001/REC-SVG-20010904/DTD/svg10.dtd">
<svg version="1.0" xmlns="http://www.w3.org/2000/svg"
 width="244.000000pt" height="729.000000pt" viewBox="0 0 244.000000 729.000000"
 preserveAspectRatio="xMidYMid meet">
<metadata>
Created by potrace 1.16, written by Peter Selinger 2001-2019
</metadata>
<g transform="translate(0.000000,729.000000) scale(0.100000,-0.100000)"
fill="#000000" stroke="none">
<path d="M265 7274 c-126 -7 -238 -13 -247 -13 -17 -1 -18 -181 -18 -3626 l0
-3625 1216 0 1216 0 -4 173 c-4 164 -6 176 -37 258 -82 219 -285 449 -397 449
-64 0 -107 56 -118 154 -13 119 -82 241 -226 400 -142 157 -185 265 -250 629
-59 328 -277 1850 -329 2297 -41 348 -43 556 -4 622 22 39 97 83 166 98 58 12
159 81 217 148 57 64 97 154 125 280 33 149 44 265 55 582 11 328 13 1177 3
1183 -5 2 -177 -7 -383 -19 -206 -12 -393 -23 -416 -23 l-40 -1 -13 -192 c-15
-230 -26 -315 -53 -387 -37 -97 -102 -130 -152 -76 -42 46 -48 92 -53 408 -4
217 -8 297 -16 296 -7 -1 -115 -8 -242 -15z"/>
</g>
</svg>
