{
  "accessors": [
    {
      "bufferView": 2,
      "componentType": 5126,
      "count": 59641,
      "max": [
        0.0693764016032219,
        8.496661152435081e-10,
        0.10184799879789352
      ],
      "min": [
        -0.0693764016032219,
        -0.18450240790843964,
        -0.10184799134731293
      ],
      "type": "VEC3"
    },
    {
      "bufferView": 2,
      "byteOffset": 715692,
      "componentType": 5126,
      "count": 59641,
      "max": [
        0.9999670386314392,
        0.9999755620956421,
        0.9999801516532898
      ],
      "min": [
        -0.9999983310699463,
        -0.999907910823822,
        -0.9999845027923584
      ],
      "type": "VEC3"
    },
    {
      "bufferView": 1,
      "componentType": 5126,
      "count": 59641,
      "max": [
        0.9999669790267944,
        0.999858021736145
      ],
      "min": [
        1.4536300113832112e-05,
        0.004651620052754879
      ],
      "type": "VEC2"
    },
    {
      "bufferView": 0,
      "componentType": 5125,
      "count": 324603,
      "type": "SCALAR"
    },
    {
      "bufferView": 2,
      "byteOffset": 1431384,
      "componentType": 5126,
      "count": 1205,
      "max": [
        0.03184233233332634,
        -0.05705518648028374,
        -0.09638728946447372
      ],
      "min": [
        -0.03997455909848213,
        -0.1110985055565834,
        -0.10184799134731293
      ],
      "type": "VEC3"
    },
    {
      "bufferView": 2,
      "byteOffset": 1445844,
      "componentType": 5126,
      "count": 1205,
      "max": [
        0.9992462992668152,
        0.9948632121086121,
        0.8194984197616577
      ],
      "min": [
        -0.999649703502655,
        -0.9860395789146423,
        -0.9999845027923584
      ],
      "type": "VEC3"
    },
    {
      "bufferView": 1,
      "byteOffset": 477128,
      "componentType": 5126,
      "count": 1205,
      "max": [
        0.0,
        0.0
      ],
      "min": [
        0.0,
        0.0
      ],
      "type": "VEC2"
    },
    {
      "bufferView": 0,
      "byteOffset": 1298412,
      "componentType": 5125,
      "count": 6057,
      "type": "SCALAR"
    }
  ],
  "asset": {
    "extras": {
      "author": "emm (https://sketchfab.com/edemaistre)",
      "license": "CC-BY-4.0 (http://creativecommons.org/licenses/by/4.0/)",
      "source": "https://sketchfab.com/3d-models/space-marine-warhammer-scenario-34cdad8cc6f54e15b8c42d1094085e3d",
      "title": "Space Marine Warhammer (Scenario)"
    },
    "generator": "Sketchfab-13.52.1",
    "version": "2.0"
  },
  "bufferViews": [
    {
      "buffer": 0,
      "byteLength": 1322640,
      "name": "floatBufferViews",
      "target": 34963
    },
    {
      "buffer": 0,
      "byteLength": 486768,
      "byteOffset": 1322640,
      "byteStride": 8,
      "name": "floatBufferViews",
      "target": 34962
    },
    {
      "buffer": 0,
      "byteLength": 1460304,
      "byteOffset": 1809408,
      "byteStride": 12,
      "name": "floatBufferViews",
      "target": 34962
    }
  ],
  "buffers": [
    {
      "byteLength": 3269712,
      "uri": "scene.bin"
    }
  ],
  "extensionsUsed": [
    "KHR_materials_unlit"
  ],
  "images": [
    {
      "uri": "textures/material_1_baseColor.png"
    }
  ],
  "materials": [
    {
      "doubleSided": true,
      "extensions": {
        "KHR_materials_unlit": {}
      },
      "name": "material_1",
      "pbrMetallicRoughness": {
        "baseColorTexture": {
          "index": 0
        },
        "metallicFactor": 0.0
      }
    }
  ],
  "meshes": [
    {
      "name": "Object_0",
      "primitives": [
        {
          "attributes": {
            "NORMAL": 1,
            "POSITION": 0,
            "TEXCOORD_0": 2
          },
          "indices": 3,
          "material": 0,
          "mode": 4
        }
      ]
    },
    {
      "name": "Object_1",
      "primitives": [
        {
          "attributes": {
            "NORMAL": 5,
            "POSITION": 4,
            "TEXCOORD_0": 6
          },
          "indices": 7,
          "material": 0,
          "mode": 4
        }
      ]
    }
  ],
  "nodes": [
    {
      "children": [
        1
      ],
      "matrix": [
        1.0,
        0.0,
        0.0,
        0.0,
        0.0,
        2.220446049250313e-16,
        -1.0,
        0.0,
        0.0,
        1.0,
        2.220446049250313e-16,
        0.0,
        0.0,
        0.0,
        0.0,
        1.0
      ],
      "name": "Sketchfab_model"
    },
    {
      "children": [
        2,
        3
      ],
      "name": "Warhammer.obj.cleaner.materialmerger.gles"
    },
    {
      "mesh": 0,
      "name": "Object_2"
    },
    {
      "mesh": 1,
      "name": "Object_3"
    }
  ],
  "samplers": [
    {
      "magFilter": 9729,
      "minFilter": 9987,
      "wrapS": 10497,
      "wrapT": 10497
    }
  ],
  "scene": 0,
  "scenes": [
    {
      "name": "Sketchfab_Scene",
      "nodes": [
        0
      ]
    }
  ],
  "textures": [
    {
      "sampler": 0,
      "source": 0
    }
  ]
}
